<?xml version="1.0" encoding="UTF-8" standalone="no"?>
<!-- Generator: Adobe Illustrator 19.0.0, SVG Export Plug-In . SVG Version: 6.00 Build 0)  -->

<svg
   xmlns:dc="http://purl.org/dc/elements/1.1/"
   xmlns:cc="http://creativecommons.org/ns#"
   xmlns:rdf="http://www.w3.org/1999/02/22-rdf-syntax-ns#"
   xmlns:svg="http://www.w3.org/2000/svg"
   xmlns="http://www.w3.org/2000/svg"
   xmlns:sodipodi="http://sodipodi.sourceforge.net/DTD/sodipodi-0.dtd"
   xmlns:inkscape="http://www.inkscape.org/namespaces/inkscape"
   version="1.1"
   id="Capa_1"
   x="0px"
   y="0px"
   viewBox="0 0 487.60001 115.1"
   xml:space="preserve"
   inkscape:version="0.91 r13725"
   sodipodi:docname="colcaps.svg"
   width="487.60001"
   height="115.1"><metadata
     id="metadata3422"><rdf:RDF><cc:Work
         rdf:about=""><dc:format>image/svg+xml</dc:format><dc:type
           rdf:resource="http://purl.org/dc/dcmitype/StillImage" /><dc:title></dc:title></cc:Work></rdf:RDF></metadata><defs
     id="defs3420" /><sodipodi:namedview
     pagecolor="#ffffff"
     bordercolor="#666666"
     borderopacity="1"
     objecttolerance="10"
     gridtolerance="10"
     guidetolerance="10"
     inkscape:pageopacity="0"
     inkscape:pageshadow="2"
     inkscape:window-width="1280"
     inkscape:window-height="755"
     id="namedview3418"
     showgrid="false"
     fit-margin-top="0"
     fit-margin-left="0"
     fit-margin-right="0"
     fit-margin-bottom="0"
     inkscape:zoom="0.9624183"
     inkscape:cx="248.2"
     inkscape:cy="43.9"
     inkscape:window-x="0"
     inkscape:window-y="280"
     inkscape:window-maximized="0"
     inkscape:current-layer="Capa_1" /><style
     type="text/css"
     id="style3408">
	.st0{fill-rule:evenodd;clip-rule:evenodd;fill:#91DEA8;}
	.st1{fill-rule:evenodd;clip-rule:evenodd;fill:#51AD8E;}
	.st2{fill-rule:evenodd;clip-rule:evenodd;fill:#999999;}
</style><g
     id="g3410"
     transform="translate(-148.5,-234.8)"><path
       class="st0"
       d="m 248.5,289.6 c -20.7,0 -48.6,-28.1 -70.6,-28.1 0,0 -4,0.1 -8.9,1 8.7,-10.8 22.1,-17.8 37.1,-17.8 23.4,0 42.9,17 46.9,39.3 3.9,-1.1 6.9,-3.3 9,-5.5 -6.2,-25.1 -28.9,-43.7 -55.9,-43.7 -25.9,0 -47.9,17.2 -55.1,40.8 0,0 6.7,-3.8 16.8,-3.8 27.7,0.5 44.2,32.4 73.3,32.4 22.6,0 29.2,-28.3 29.2,-28.3 0,0 -7.2,13.7 -21.8,13.7 z"
       id="path3412"
       inkscape:connector-curvature="0"
       style="clip-rule:evenodd;fill:#91dea8;fill-rule:evenodd" /><path
       class="st1"
       d="m 251.3,307.4 c -6.3,18.9 -24.2,32.5 -45.2,32.5 -26.3,0 -47.6,-21.4 -47.6,-47.6 0,-0.2 0,-0.4 0,-0.7 1.5,0.1 11.2,1 22.2,12.8 12.1,12.9 21.5,20 31.6,20 10.2,0 15,-8.2 15,-8.2 0,0 -1.7,0.8 -5,0.8 -27.2,0 -33.7,-31.1 -57.7,-31.1 -10.1,0 -16.1,6.4 -16.1,6.4 0,31.8 25.8,57.6 57.6,57.6 29.4,0 53.6,-22.1 57.1,-50.5 -3.1,3.3 -7,6.2 -11.9,8 z"
       id="path3414"
       inkscape:connector-curvature="0"
       style="clip-rule:evenodd;fill:#51ad8e;fill-rule:evenodd" /><path
       class="st2"
       d="m 342.4,325.4 -0.9,0 c -3.4,0 -6.5,-0.6 -9.5,-1.9 -2.9,-1.3 -5.6,-3.1 -8,-5.6 -2.4,-2.5 -4.2,-5.2 -5.5,-8.2 -1.2,-2.9 -1.8,-6.1 -1.8,-9.5 0,-6.8 2.5,-12.6 7.4,-17.5 2.5,-2.4 5.2,-4.3 8.3,-5.5 3,-1.2 6.3,-1.8 9.9,-1.8 3.6,0 6.9,0.7 10,2 3.1,1.4 5.9,3.4 8.4,6.1 l 0.3,0.4 0,9.7 -2.3,-3.4 c -1,-1.5 -2.1,-2.8 -3.4,-3.9 -1.2,-1.2 -2.6,-2.2 -4.1,-3 -1.5,-0.8 -3,-1.5 -4.6,-1.9 -1.6,-0.4 -3.2,-0.6 -4.8,-0.6 -2.6,0 -5.1,0.5 -7.3,1.4 -2.3,1 -4.4,2.4 -6.3,4.4 -1.9,1.9 -3.4,4.1 -4.4,6.4 -1,2.3 -1.4,4.8 -1.4,7.5 0,2.7 0.5,5.2 1.4,7.5 1,2.3 2.4,4.4 4.4,6.4 2,2 4.1,3.4 6.3,4.4 2.3,1 4.7,1.4 7.3,1.4 3.3,0 6.4,-0.9 9.4,-2.6 1.5,-0.9 2.9,-1.9 4.1,-3 1.2,-1.2 2.4,-2.5 3.3,-4 l 2.3,-3.5 0,9.9 -0.3,0.4 c -2.5,2.7 -5.2,4.7 -8.3,6.1 -3,1.2 -6.3,1.9 -9.9,1.9 l 0,0 z m 126.9,0 -0.9,0 c -3.4,0 -6.5,-0.6 -9.5,-1.9 -2.9,-1.3 -5.6,-3.1 -8,-5.6 -2.4,-2.5 -4.3,-5.2 -5.5,-8.2 -1.2,-2.9 -1.8,-6.1 -1.8,-9.5 0,-6.8 2.5,-12.6 7.4,-17.5 2.5,-2.4 5.2,-4.3 8.3,-5.5 3,-1.2 6.3,-1.8 9.9,-1.8 3.6,0 6.9,0.7 10,2 3.1,1.4 5.9,3.4 8.4,6.1 l 0.3,0.4 0,9.7 -2.3,-3.4 c -1,-1.5 -2.1,-2.8 -3.4,-3.9 -1.2,-1.2 -2.6,-2.2 -4.1,-3 -1.5,-0.8 -3,-1.5 -4.6,-1.9 -1.6,-0.4 -3.2,-0.6 -4.8,-0.6 -2.6,0 -5.1,0.5 -7.3,1.4 -2.3,1 -4.4,2.4 -6.3,4.4 -1.9,1.9 -3.4,4.1 -4.4,6.4 -1,2.3 -1.4,4.8 -1.4,7.5 0,2.7 0.5,5.2 1.4,7.5 1,2.3 2.4,4.4 4.4,6.4 2,2 4.1,3.4 6.3,4.4 2.3,1 4.7,1.4 7.3,1.4 3.3,0 6.4,-0.9 9.4,-2.6 1.5,-0.9 2.9,-1.9 4.1,-3 1.2,-1.2 2.4,-2.5 3.3,-4 l 2.3,-3.5 0,9.9 -0.3,0.4 c -2.5,2.7 -5.2,4.7 -8.3,6.1 -2.9,1.2 -6.3,1.9 -9.9,1.9 l 0,0 z m 72.4,-47.9 0,46.5 -5.7,0 0,-8.1 c -0.4,0.6 -0.9,1.1 -1.4,1.6 -1.5,1.6 -3.2,3 -5.2,4.1 -2,1.2 -4,2 -6.1,2.6 -2.1,0.6 -4.3,0.9 -6.6,0.9 -3.4,0 -6.7,-0.6 -9.6,-1.8 -3,-1.2 -5.7,-3.1 -8.2,-5.5 -2.5,-2.4 -4.3,-5.1 -5.6,-8.1 -1.2,-3 -1.9,-6.1 -1.9,-9.6 0,-6.9 2.5,-12.7 7.4,-17.6 2.5,-2.4 5.2,-4.3 8.2,-5.5 3,-1.2 6.2,-1.8 9.6,-1.8 2.3,0 4.5,0.3 6.6,0.9 2.2,0.6 4.3,1.5 6.3,2.7 2.6,1.5 4.7,3.3 6.3,5.5 l 0,-7.9 5.7,0 0,1.1 0.2,0 z m -44.5,22.8 c 0,2.7 0.5,5.1 1.4,7.4 1,2.3 2.4,4.4 4.4,6.4 2,2 4.1,3.4 6.4,4.4 2.3,1 4.8,1.4 7.4,1.4 2.7,0 5.1,-0.5 7.4,-1.4 2.3,-1 4.4,-2.4 6.2,-4.4 3.8,-3.9 5.7,-8.5 5.7,-13.8 0,-2.7 -0.5,-5.2 -1.4,-7.5 -1,-2.3 -2.4,-4.4 -4.3,-6.4 -3.8,-3.9 -8.4,-5.9 -13.6,-5.9 -2.6,0 -5.1,0.5 -7.4,1.5 -2.3,1 -4.4,2.5 -6.4,4.4 -1.9,2 -3.4,4.1 -4.4,6.4 -0.9,2.3 -1.4,4.8 -1.4,7.5 l 0,0 z m 54.1,42.7 0,-66.7 5.7,0 0,8 c 0.4,-0.5 0.9,-1 1.3,-1.5 1.5,-1.6 3.3,-2.9 5.3,-4.1 2,-1.2 4.1,-2 6.2,-2.6 2.1,-0.6 4.3,-0.9 6.5,-0.9 3.5,0 6.7,0.6 9.7,1.8 3,1.2 5.7,3.1 8.1,5.5 4.9,4.9 7.4,10.8 7.4,17.6 0,3.4 -0.6,6.6 -1.8,9.6 -1.2,2.9 -3.1,5.6 -5.5,8.1 -4.9,4.9 -10.9,7.4 -17.8,7.4 -2.1,0 -4.2,-0.3 -6.3,-0.9 -2.1,-0.6 -4.1,-1.4 -6.1,-2.6 -2,-1.1 -3.8,-2.5 -5.3,-4 -0.6,-0.6 -1.1,-1.1 -1.6,-1.7 l 0,28.2 -5.7,0 0,-1.2 -0.1,0 z m 5.5,-42.7 c 0,2.7 0.5,5.1 1.4,7.4 1,2.3 2.4,4.4 4.4,6.4 2,2 4.1,3.4 6.4,4.4 2.3,1 4.8,1.4 7.4,1.4 2.7,0 5.1,-0.5 7.4,-1.4 2.3,-1 4.4,-2.4 6.2,-4.4 1.9,-1.9 3.3,-4.1 4.3,-6.4 0.9,-2.3 1.4,-4.8 1.4,-7.5 0,-5.3 -1.9,-10 -5.7,-13.9 -1.9,-2 -4,-3.4 -6.3,-4.4 -2.3,-1 -4.7,-1.5 -7.4,-1.5 -2.6,0 -5.1,0.5 -7.4,1.5 -2.3,1 -4.4,2.5 -6.4,4.4 -1.9,2 -3.4,4.1 -4.4,6.4 -0.8,2.4 -1.3,4.9 -1.3,7.6 l 0,0 z m 62.9,-19.9 c -0.7,0 -1.4,0.1 -2,0.3 -0.6,0.2 -1.2,0.6 -1.8,1.1 -0.5,0.5 -0.9,1 -1.2,1.5 -0.3,0.5 -0.4,1.1 -0.4,1.8 0,0.6 0.1,1.3 0.4,1.9 0.3,0.6 0.8,1.2 1.4,1.8 0.7,0.7 1.5,1.3 2.4,1.9 0.9,0.6 1.8,1.2 2.8,1.8 1.1,0.6 2.2,1.2 3.2,1.8 1.1,0.6 2.2,1.3 3.2,2 1.1,0.7 2.2,1.5 3.2,2.4 1,0.9 1.9,1.9 2.7,3 0.8,1.1 1.5,2.4 1.9,3.7 0.4,1.3 0.6,2.7 0.6,4.2 0,2.2 -0.4,4.2 -1.2,6 -0.8,1.8 -2,3.5 -3.7,5 -1.6,1.5 -3.4,2.6 -5.3,3.4 -2,0.8 -4.1,1.1 -6.3,1.1 -2.9,0 -5.6,-0.6 -8.1,-1.9 -2.5,-1.3 -4.4,-3 -5.6,-5.2 l -0.2,-0.3 0,-10.9 2.4,5.3 c 1.2,2.6 2.7,4.6 4.6,5.8 1.8,1.3 4,1.9 6.6,1.9 1.6,0 3.1,-0.2 4.4,-0.7 1.3,-0.5 2.5,-1.2 3.6,-2.2 1.1,-1 1.9,-2 2.4,-3 0.5,-1 0.8,-2.1 0.8,-3.2 0,-1.2 -0.2,-2.3 -0.5,-3.3 -0.3,-1 -0.8,-1.9 -1.5,-2.6 -0.7,-0.8 -1.5,-1.6 -2.4,-2.4 -0.9,-0.7 -1.8,-1.4 -2.8,-2 l -6.4,-3.8 c -1.1,-0.7 -2.2,-1.4 -3.1,-2.2 -1,-0.8 -1.9,-1.7 -2.6,-2.6 -0.8,-1 -1.5,-2.1 -1.9,-3.3 -0.4,-1.2 -0.6,-2.4 -0.6,-3.8 0,-1.4 0.3,-2.7 0.8,-3.8 0.6,-1.2 1.4,-2.2 2.5,-3.2 1.1,-0.9 2.3,-1.6 3.7,-2.1 1.4,-0.5 2.9,-0.7 4.5,-0.7 3.4,0 6.3,1.3 8.7,3.9 l 0.3,0.4 0,8.7 -2.3,-3.4 c -1,-1.4 -2,-2.5 -3.2,-3.2 -1.3,-0.6 -2.6,-0.9 -4,-0.9 l 0,0 z m -230.3,44.8 c -3.4,0 -6.5,-0.6 -9.5,-1.9 -2.9,-1.3 -5.6,-3.2 -8,-5.7 -2.4,-2.5 -4.2,-5.2 -5.5,-8.2 -1.2,-3 -1.8,-6.1 -1.8,-9.4 0,-6.7 2.5,-12.5 7.4,-17.4 2.5,-2.4 5.2,-4.3 8.2,-5.5 3,-1.2 6.2,-1.8 9.7,-1.8 3.5,0 6.7,0.6 9.7,1.8 3,1.2 5.7,3.1 8.1,5.5 2.4,2.4 4.3,5.1 5.5,8.1 1.2,2.9 1.9,6.1 1.9,9.4 0,6.7 -2.4,12.6 -7.2,17.6 -2.4,2.5 -5.1,4.4 -8,5.6 -2.9,1.3 -6.1,1.9 -9.5,1.9 l -1,0 0,0 z m 19.8,-25 c 0,-2.7 -0.5,-5.2 -1.4,-7.5 -1,-2.3 -2.4,-4.4 -4.3,-6.4 -3.8,-3.9 -8.4,-5.9 -13.6,-5.9 -2.6,0 -5.1,0.5 -7.4,1.5 -2.3,1 -4.4,2.5 -6.4,4.4 -1.9,2 -3.4,4.1 -4.4,6.4 -1,2.3 -1.4,4.8 -1.4,7.4 0,2.7 0.5,5.1 1.4,7.4 1,2.3 2.4,4.4 4.4,6.4 2,2 4.1,3.4 6.4,4.4 2.3,1 4.8,1.4 7.4,1.4 2.7,0 5.1,-0.5 7.4,-1.4 2.3,-1 4.4,-2.4 6.2,-4.4 3.9,-3.7 5.7,-8.3 5.7,-13.7 l 0,0 z m 32.5,20.7 0,4.1 -1.3,0 c -2.5,0 -4.9,-0.4 -7.1,-1.3 -2.2,-0.9 -4.2,-2.1 -6,-3.8 -1.8,-1.7 -3.2,-3.7 -4.1,-5.9 -0.9,-2.2 -1.4,-4.6 -1.4,-7.3 l 0,-60.6 5.7,0 0,60.6 c 0,1.9 0.3,3.6 0.9,5.1 0.6,1.5 1.5,2.9 2.8,4.1 1.2,1.2 2.6,2.1 4.1,2.8 1.5,0.6 3.1,0.9 4.9,0.9 l 1.3,0 0,1.3 z"
       id="path3416"
       inkscape:connector-curvature="0"
       style="clip-rule:evenodd;fill:#999999;fill-rule:evenodd" /></g></svg>